<svg xmlns="http://www.w3.org/2000/svg" width="9" height="10" viewBox="0 0 9 10"><path fill="#d2d2d2" d="M8.8 5.08a.69.69 0 0 0 .16-.7.65.65 0 0 0-.52-.45L6.27 3.6a.29.29 0 0 1-.22-.16l-.97-2.06A.64.64 0 0 0 4.5 1a.64.64 0 0 0-.58.38l-.97 2.06a.29.29 0 0 1-.22.16l-2.17.33a.65.65 0 0 0-.52.46.69.69 0 0 0 .16.69l1.57 1.6c.07.07.1.17.09.26l-.38 2.27c-.03.2.02.4.15.54.19.24.52.32.79.17l1.95-1.07a.28.28 0 0 1 .26 0l1.95 1.07a.62.62 0 0 0 .8-.17.68.68 0 0 0 .14-.54l-.38-2.27a.3.3 0 0 1 .09-.26z"/></svg>